<svg xmlns="http://www.w3.org/2000/svg" xmlns:xlink="http://www.w3.org/1999/xlink" preserveAspectRatio="xMidYMid" width="25.375" height="26" viewBox="0 0 25.375 26">
  <defs>
    <style>
      .cls-1 {
        fill: #1d90b5;
        fill-rule: evenodd;
      }
    </style>
  </defs>
  <path d="M25.380,2.463 C24.447,2.882 23.443,3.164 22.389,3.291 C23.464,2.641 24.290,1.610 24.679,0.382 C23.673,0.985 22.558,1.422 21.372,1.659 C20.422,0.636 19.069,-0.002 17.571,-0.002 C14.696,-0.002 12.364,2.353 12.364,5.257 C12.364,5.669 12.410,6.070 12.499,6.455 C8.171,6.236 4.333,4.142 1.765,0.960 C1.317,1.737 1.060,2.640 1.060,3.604 C1.060,5.429 1.979,7.038 3.377,7.981 C2.523,7.954 1.720,7.718 1.018,7.323 C1.018,7.345 1.018,7.367 1.018,7.390 C1.018,9.938 2.813,12.063 5.195,12.547 C4.758,12.667 4.298,12.731 3.823,12.731 C3.487,12.731 3.161,12.698 2.843,12.636 C3.506,14.725 5.429,16.246 7.707,16.289 C5.925,17.699 3.680,18.540 1.240,18.540 C0.820,18.540 0.406,18.514 -0.002,18.466 C2.303,19.959 5.040,20.829 7.980,20.829 C17.559,20.829 22.796,12.815 22.796,5.866 C22.796,5.639 22.792,5.411 22.782,5.186 C23.799,4.444 24.682,3.518 25.380,2.463 Z" transform="translate(0 2.58)" class="cls-1"/>
</svg>
