<svg xmlns="http://www.w3.org/2000/svg" xmlns:xlink="http://www.w3.org/1999/xlink" preserveAspectRatio="xMidYMid" width="25.75" height="26" viewBox="0 0 25.75 26">
  <defs>
    <style>
      .cls-1 {
        fill: #1d90b5;
        fill-rule: evenodd;
      }
    </style>
  </defs>
  <path d="M23.631,23.942 C22.265,25.288 20.375,26.000 18.164,26.000 L7.588,26.000 C5.418,26.000 3.544,25.287 2.167,23.937 C0.749,22.547 -0.001,20.610 -0.001,18.336 L-0.001,7.596 C-0.001,3.047 3.025,-0.008 7.528,-0.008 L18.223,-0.008 C20.422,-0.008 22.308,0.728 23.676,2.121 C25.035,3.502 25.753,5.396 25.753,7.596 L25.753,18.396 C25.753,20.655 25.019,22.573 23.631,23.942 ZM23.382,7.596 C23.382,6.041 22.902,4.731 21.994,3.807 C21.080,2.877 19.776,2.386 18.223,2.386 L7.528,2.386 C5.966,2.386 4.662,2.866 3.758,3.774 C2.850,4.686 2.369,6.008 2.369,7.596 L2.369,18.336 C2.369,19.948 2.870,21.290 3.818,22.219 C4.744,23.127 6.047,23.606 7.588,23.606 L18.164,23.606 C19.743,23.606 21.061,23.130 21.975,22.229 C22.895,21.321 23.382,19.995 23.382,18.396 L23.382,7.596 ZM19.751,7.587 C18.920,7.587 18.247,6.907 18.247,6.068 C18.247,5.229 18.920,4.549 19.751,4.549 C20.582,4.549 21.256,5.229 21.256,6.068 C21.256,6.907 20.582,7.587 19.751,7.587 ZM12.876,19.614 C9.223,19.614 6.250,16.612 6.250,12.922 C6.250,9.233 9.223,6.231 12.876,6.231 C16.529,6.231 19.502,9.233 19.502,12.922 C19.502,16.612 16.529,19.614 12.876,19.614 ZM12.876,8.625 C10.529,8.625 8.621,10.553 8.621,12.922 C8.621,15.292 10.529,17.220 12.876,17.220 C15.222,17.220 17.131,15.292 17.131,12.922 C17.131,10.553 15.222,8.625 12.876,8.625 Z" class="cls-1"/>
</svg>
